<svg xmlns="http://www.w3.org/2000/svg" xmlns:xlink="http://www.w3.org/1999/xlink" width="20" height="20" viewBox="0 0 20 20">
    <defs>
        <path id="lxy0rh3e7a" d="M46.12 1038.745c1.49 1.673 3.918 1.674 5.41 0l8.657-9.707c.435-.483.676-1.13.677-1.82.004-1.379-1.071-2.584-2.3-2.58-.615.001-1.192.271-1.626.762l-7.573 8.491c-.299.336-.299.879 0 1.214.3.335.784.335 1.082 0l7.576-8.495c.147-.166.339-.255.544-.256.41 0 .767.4.767.86 0 .23-.08.445-.226.607l-8.66 9.71c-.895 1.006-2.351 1.006-3.247 0-.895-1.002-.895-2.636 0-3.64l9.74-10.921c1.491-1.673 3.919-1.673 5.41 0 1.492 1.673 1.492 4.395 0 6.068l-7.575 8.494c-.299.335-.299.878 0 1.213.3.335.784.335 1.082 0l7.576-8.494c2.088-2.342 2.088-6.153 0-8.494-2.088-2.343-5.487-2.343-7.576 0l-9.739 10.921c-1.492 1.673-1.492 4.394 0 6.067z"/>
    </defs>
    <g fill="none" fill-rule="evenodd">
        <g transform="translate(-45 -1020)">
            <use fill="#00AEEF" fill-rule="nonzero" xlink:href="#lxy0rh3e7a"/>
        </g>
    </g>
</svg>
