<svg xmlns="http://www.w3.org/2000/svg" width="17" height="16"  xmlns:v="https://vecta.io/nano"><path d="M1.177 9.156l5.992 5.992a1.33 1.33 0 0 0 2.241-.589 1.33 1.33 0 0 0-.359-1.293L5.208 9.423l10.291.002a1.33 1.33 0 0 0 1.175-.658c.244-.415.244-.93 0-1.345a1.33 1.33 0 0 0-1.175-.658L5.207 6.762l3.844-3.844a1.33 1.33 0 0 0 .359-1.293C9.289 1.162 8.927.8 8.463.678a1.33 1.33 0 0 0-1.293.359L1.171 7.036c-.31.237-.501.598-.521.988a1.33 1.33 0 0 0 .414 1.037l.113.095z" fill="#fff" fill-rule="evenodd"/></svg>