<svg xmlns="http://www.w3.org/2000/svg" width="19" height="19" viewBox="0 0 19 19">
    <g fill="none" fill-rule="evenodd">
        <g fill="#00AEEF">
            <g>
                <g>
                    <g>
                        <g>
                            <path fill-rule="nonzero" d="M6.493 10.141c0-.23-.186-.416-.417-.416H4.62c-.23 0-.417.186-.417.416v1.456c0 .23.187.417.417.417h1.456c.23 0 .417-.186.417-.417v-1.456zM10.132 10.141c0-.23-.187-.416-.417-.416H8.26c-.23 0-.417.186-.417.416v1.456c0 .23.187.417.417.417h1.456c.23 0 .417-.186.417-.417v-1.456zM13.771 10.141c0-.23-.187-.416-.417-.416h-1.456c-.23 0-.417.186-.417.416v1.456c0 .23.187.417.417.417h1.456c.23 0 .417-.186.417-.417v-1.456zM6.493 13.78c0-.23-.186-.416-.417-.416H4.62c-.23 0-.417.186-.417.417v1.455c0 .23.187.417.417.417h1.456c.23 0 .417-.186.417-.417v-1.455zM10.132 13.78c0-.23-.187-.416-.417-.416H8.26c-.23 0-.417.186-.417.417v1.455c0 .23.187.417.417.417h1.456c.23 0 .417-.186.417-.417v-1.455zM13.771 13.78c0-.23-.187-.416-.417-.416h-1.456c-.23 0-.417.186-.417.417v1.455c0 .23.187.417.417.417h1.456c.23 0 .417-.186.417-.417v-1.455z" transform="translate(-787 -846) translate(550 55) translate(40 495) translate(0 256) translate(197.016 40)"/>
                            <path d="M16.375 2.047V4.27c0 1.006-.816 1.815-1.82 1.815h-1.149c-1.005 0-1.83-.81-1.83-1.815V2.04H6.4V4.27c0 1.006-.827 1.815-1.831 1.815H3.42c-1.005 0-1.82-.81-1.82-1.815V2.047C.722 2.073 0 2.8 0 3.693v13.032c0 .91.738 1.657 1.648 1.657h14.68c.908 0 1.647-.749 1.647-1.657V3.693c0-.893-.722-1.62-1.6-1.646zm-.533 13.866c0 .394-.32.713-.713.713H2.814c-.393 0-.712-.32-.712-.713V9.182c0-.393.319-.713.712-.713H15.13c.394 0 .713.32.713.713v6.731z" transform="translate(-787 -846) translate(550 55) translate(40 495) translate(0 256) translate(197.016 40)"/>
                            <path fill-rule="nonzero" d="M3.416 4.893h1.136c.344 0 .624-.279.624-.624V.624C5.176.28 4.896 0 4.552 0H3.416c-.345 0-.624.28-.624.624V4.27c0 .345.279.624.624.624zM13.391 4.893h1.136c.345 0 .624-.279.624-.624V.624c0-.345-.28-.624-.624-.624h-1.136c-.344 0-.624.28-.624.624V4.27c0 .345.28.624.624.624z" transform="translate(-787 -846) translate(550 55) translate(40 495) translate(0 256) translate(197.016 40)"/>
                        </g>
                    </g>
                </g>
            </g>
        </g>
    </g>
</svg>
