<svg xmlns="http://www.w3.org/2000/svg" xmlns:xlink="http://www.w3.org/1999/xlink" width="18" height="18" viewBox="0 0 18 18">
    <defs>
        <path id="vaymxnvo0a" d="M0 0H18V18H0z"/>
    </defs>
    <g fill="none" fill-rule="evenodd">
        <g>
            <g>
                <g transform="translate(-1750 -41) translate(1735 30) translate(15 11)">
                    <mask id="zquqbqoo3b" fill="#fff">
                        <use xlink:href="#vaymxnvo0a"/>
                    </mask>
                    <g mask="url(#zquqbqoo3b)">
                        <g>
                            <path fill="#FFF" d="M17.491 13.21l-2.512-2.512c-.897-.897-2.422-.538-2.78.628-.27.808-1.167 1.256-1.975 1.077-1.794-.449-4.216-2.781-4.665-4.665-.269-.808.27-1.705 1.077-1.974 1.166-.359 1.525-1.884.628-2.781L4.752.47c-.718-.628-1.794-.628-2.422 0L.625 2.176C-1.079 3.97.805 8.725 5.021 12.94c4.217 4.217 8.971 6.19 10.766 4.396l1.704-1.705c.628-.717.628-1.794 0-2.422z" transform="translate(.019)"/>
                        </g>
                    </g>
                </g>
            </g>
        </g>
    </g>
</svg>
