<svg xmlns="http://www.w3.org/2000/svg" width="16" height="20"  xmlns:v="https://vecta.io/nano"><path d="M15.556 7.5h-1.334V5.833C14.222 2.617 11.431 0 8 0S1.778 2.617 1.778 5.833V7.5H.444C.2 7.5 0 7.686 0 7.917v10.416C0 19.253.797 20 1.778 20h12.444c.98 0 1.778-.747 1.778-1.667V7.917c0-.23-.199-.417-.444-.417zM9.33 16.204c.014.118-.027.236-.11.324s-.206.139-.332.139H7.11c-.126 0-.247-.05-.331-.14s-.125-.205-.11-.323l.28-2.364c-.456-.31-.728-.801-.728-1.34 0-.92.798-1.667 1.778-1.667s1.778.748 1.778 1.667c0 .539-.272 1.03-.728 1.34l.28 2.364zM11.556 7.5H4.444V5.833C4.444 3.995 6.04 2.5 8 2.5s3.556 1.495 3.556 3.333V7.5z" fill="#ff4848" fill-rule="evenodd"/></svg>