<svg xmlns="http://www.w3.org/2000/svg" xmlns:xlink="http://www.w3.org/1999/xlink" width="20" height="20" viewBox="0 0 20 20">
    <defs>
        <path id="ihn1b98woa" d="M0 0H19.999V19.999H0z"/>
    </defs>
    <g fill="none" fill-rule="evenodd">
        <g>
            <g>
                <g>
                    <g transform="translate(-1773 -318) translate(1761 236) translate(0 74) translate(12 8)">
                        <mask id="iynzulx59b" fill="#fff">
                            <use xlink:href="#ihn1b98woa"/>
                        </mask>
                        <path fill="#00AEEF" d="M14.726.625H1.758C.788.625 0 1.413 0 2.382v9.375c0 .97.788 1.758 1.758 1.758H3.515v2.93c0 .522.634.78 1 .414l3.173-3.173c.11-.11.258-.171.414-.171h6.624c.969 0 1.758-.789 1.758-1.758V2.382c0-.969-.789-1.757-1.758-1.757zM2.93 4.14h8.28c.324 0 .586.262.586.586 0 .324-.262.586-.585.586H2.93c-.324 0-.586-.262-.586-.586 0-.324.262-.586.586-.586zM8.867 10H2.93c-.324 0-.586-.263-.586-.587 0-.323.262-.585.586-.585h5.937c.324 0 .586.262.586.585 0 .324-.262.586-.586.586zm4.687-2.344H2.93c-.324 0-.586-.262-.586-.586 0-.324.262-.586.586-.586h10.624c.324 0 .586.262.586.586 0 .324-.262.586-.586.586z" mask="url(#iynzulx59b)"/>
                        <path fill="#00548E" d="M18.241 2.968h-.578v8.789c0 1.615-1.322 2.93-2.937 2.93H8.423l-1.25 1.164h4.967l3.344 3.351c.367.368 1 .11 1-.414v-2.937h1.757c.97 0 1.758-.781 1.758-1.75V4.726c0-.97-.788-1.758-1.758-1.758z" mask="url(#iynzulx59b)"/>
                    </g>
                </g>
            </g>
        </g>
    </g>
</svg>
