<svg xmlns="http://www.w3.org/2000/svg" width="18" height="18"  xmlns:v="https://vecta.io/nano"><path d="M3.75 0h-3A.75.75 0 0 0 0 .75v3a.75.75 0 0 0 .75.75h3a.75.75 0 0 0 .75-.75v-3A.75.75 0 0 0 3.75 0zm13.5 0H6.75A.75.75 0 0 0 6 .75v3a.75.75 0 0 0 .75.75h10.5a.75.75 0 0 0 .75-.75v-3a.75.75 0 0 0-.75-.75zM3.75 6.75h-3A.75.75 0 0 0 0 7.5v3a.75.75 0 0 0 .75.75h3a.75.75 0 0 0 .75-.75v-3a.75.75 0 0 0-.75-.75zm13.5 0H6.75A.75.75 0 0 0 6 7.5v3a.75.75 0 0 0 .75.75h10.5a.75.75 0 0 0 .75-.75v-3a.75.75 0 0 0-.75-.75zM3.75 13.5h-3a.75.75 0 0 0-.75.75v3a.75.75 0 0 0 .75.75h3a.75.75 0 0 0 .75-.75v-3a.75.75 0 0 0-.75-.75zm13.5 0H6.75a.75.75 0 0 0-.75.75v3a.75.75 0 0 0 .75.75h10.5a.75.75 0 0 0 .75-.75v-3a.75.75 0 0 0-.75-.75z" fill="#ff4848"/></svg>