<svg xmlns="http://www.w3.org/2000/svg" width="18" height="18" viewBox="0 0 18 18">
    <g fill="none" fill-rule="evenodd">
        <g fill="#00AEEF">
            <g>
                <g>
                    <g>
                        <g>
                            <g>
                                <path d="M9 0C4.037 0 0 4.037 0 9s4.037 9 9 9 9-4.037 9-9-4.037-9-9-9zm4.28 13.655c-.146.146-.338.22-.53.22s-.384-.074-.53-.22l-3.75-3.75c-.141-.14-.22-.33-.22-.53V4.5c0-.415.336-.75.75-.75s.75.335.75.75v4.564l3.53 3.53c.293.294.293.768 0 1.061z" transform="translate(-1042 -846) translate(550 55) translate(40 495) translate(0 256) translate(255) translate(197 40)"/>
                            </g>
                        </g>
                    </g>
                </g>
            </g>
        </g>
    </g>
</svg>
