<?xml version="1.0" encoding="utf-8"?>
<!-- Generator: Adobe Illustrator 26.0.1, SVG Export Plug-In . SVG Version: 6.00 Build 0)  -->
<svg version="1.1" id="Layer_1" xmlns="http://www.w3.org/2000/svg" xmlns:xlink="http://www.w3.org/1999/xlink" x="0px" y="0px"
	 viewBox="0 0 512 512" style="enable-background:new 0 0 512 512;" class="st0"  width="20" height="20" xml:space="preserve">
<style type="text/css">
	.st0{fill:#ff4848;}
</style>
<g>
	<path d="M99.42,443.42c-5.4-2.08-11.32-3.36-16.09-6.42c-8.49-5.45-13.42-13.76-14.24-23.98c-1.13-14.17-0.86-28.25,4.14-41.87
		c7.1-19.32,19.87-33.64,38.12-42.96c22.07-11.28,45.05-20.32,68.93-27.02c7.79-2.18,11.19-0.47,13.95,7.24
		c10.78,30.03,21.54,60.06,32.31,90.1c0.4,1.11,0.84,2.21,1.64,4.31c1.6-7.88,3.02-14.77,4.4-21.66c1.84-9.2,3.75-18.39,5.41-27.62
		c0.37-2.05,0.28-4.4-0.36-6.37c-4.76-14.71-9.81-29.33-14.49-44.07c-0.79-2.49-0.94-5.66-0.12-8.08c1.39-4.11,5.24-4.96,9.3-4.94
		c14.03,0.05,28.06,0.02,42.08,0.02c1.95,0,3.9-0.04,5.86,0.01c7.94,0.19,11.38,5.1,8.87,12.79c-2.79,8.57-5.66,17.11-8.51,25.66
		c-1.81,5.43-3.48,10.91-5.52,16.26c-1.4,3.68-1.53,7.19-0.73,11.04c3.08,14.66,5.93,29.38,8.87,44.07
		c0.12,0.58,0.36,1.14,0.77,2.41c0.64-1.58,1.09-2.56,1.45-3.57c10.69-29.8,21.38-59.61,32.07-89.41c0.41-1.15,0.79-2.31,1.29-3.41
		c2.13-4.72,5.6-6.66,10.61-5.33c6.59,1.74,13.13,3.7,19.58,5.89c18.94,6.43,37.59,13.68,55.01,23.55
		c22.05,12.49,34.79,31.74,38.72,56.8c0.17,1.06,0.46,2.1,0.69,3.15c0,7.57,0,15.13,0,22.7c-0.2,0.67-0.47,1.33-0.58,2.02
		c-1.39,8.65-5.6,15.6-12.32,21.18c-5.22,4.33-11.39,6.24-17.84,7.55C308.28,443.42,203.85,443.42,99.42,443.42z"/>
	<path class="st0" d="M412.71,443.42c6.45-1.32,12.62-3.23,17.84-7.55c6.72-5.57,10.94-12.53,12.32-21.18
		c0.11-0.69,0.38-1.35,0.58-2.02c0,10.25,0,20.5,0,30.75C433.21,443.42,422.96,443.42,412.71,443.42z"/>
	<path d="M256.08,68.58c56.26,0.02,102.3,46.07,102.21,102.23c-0.09,56.37-45.91,102.15-102.24,102.13
		c-56.34-0.02-102.2-45.85-102.21-102.16C153.82,114.57,199.84,68.57,256.08,68.58z"/>
</g>
</svg>
