<svg xmlns="http://www.w3.org/2000/svg" xmlns:xlink="http://www.w3.org/1999/xlink" width="56" height="55" viewBox="0 0 56 55">
    <defs>
        <path id="wiuahdi8ea" d="M0 0H55V55H0z"/>
    </defs>
    <g fill="none" fill-rule="evenodd">
        <g>
            <g>
                <g transform="translate(-932 -424) translate(745 384) translate(187.5 40)">
                    <mask id="px349lgjwb" fill="#fff">
                        <use xlink:href="#wiuahdi8ea"/>
                    </mask>
                    <path fill="#00AEEF" d="M37.168 12.891h10.334L35.557.946V11.28c0 .891.72 1.611 1.611 1.611z" mask="url(#px349lgjwb)"/>
                    <path fill="#00AEEF" d="M37.168 16.113c-2.664 0-4.834-2.17-4.834-4.834V0H11.387C8.723 0 6.553 2.17 6.553 4.834v45.332c0 2.664 2.17 4.834 4.834 4.834h32.226c2.664 0 4.834-2.17 4.834-4.834V16.113H37.168zm-19.347 16.92c.634-.635 1.655-.635 2.278 0l5.79 5.79v-15.04c0-.891.72-1.611 1.611-1.611.892 0 1.611.72 1.611 1.611v15.04l5.79-5.79c.634-.635 1.655-.635 2.278 0 .633.633.633 1.654 0 2.277l-8.54 8.54c-.301.3-.71.472-1.139.472-.43 0-.838-.172-1.139-.472l-8.54-8.54c-.634-.623-.634-1.644 0-2.278zm23.064 16.983h-26.77c-.891 0-1.611-.72-1.611-1.612 0-.891.72-1.611 1.611-1.611h26.77c.891 0 1.611.72 1.611 1.611 0 .892-.72 1.612-1.611 1.612z" mask="url(#px349lgjwb)"/>
                </g>
            </g>
        </g>
    </g>
</svg>
