<?xml version="1.0" encoding="utf-8"?>
<!-- Generator: Adobe Illustrator 22.0.0, SVG Export Plug-In . SVG Version: 6.00 Build 0)  -->
<svg version="1.1" id="Layer_1" xmlns="http://www.w3.org/2000/svg" xmlns:xlink="http://www.w3.org/1999/xlink" x="0px" y="0px"
	 viewBox="0 0 384.8 384.8" width="20" height="20" class="st0" style="enable-background:new 0 0 384.8 384.8;" xml:space="preserve">
<g>
<style type="text/css">
	.st0{fill:#ff4848;}
</style>
	<path d="M195.7,0c10.1,3.5,20.2,7,30.3,10.5c12,4.1,24.1,8.1,36.2,12.1c4,1.3,6.9,3.7,8.8,7.6c7,14.5,14.2,28.9,21.3,43.3
		c2.4,4.8,2.6,9.6-1.3,13.6c-10,10.1-20.2,20-30.6,30.3c-0.1-1.2-0.2-2.2-0.2-3.3c0-11,0-22,0-33c0-8.2-4.5-12.7-12.8-12.7
		c-36.5,0-73,0-109.4,0c-8.3,0-12.8,4.4-12.8,12.7c0,12,0,24,0,36.5c-1.1-0.9-1.9-1.4-2.5-2.1c-8.9-8.9-17.9-17.8-26.8-26.8
		c-5-5.1-5.7-9.1-2.6-15.5c7-14.2,14-28.4,20.9-42.7c2-4.1,5-6.6,9.3-8c21-6.9,41.9-13.9,62.8-20.9c1.1-0.4,2.2-1,3.3-1.5
		C191.7,0,193.8,0,195.7,0z"/>
	<path d="M294.1,383.9c-0.8-28.6-10.9-52.6-31-72.2c-17.3-16.9-38.2-26.5-62.4-28.3c-4-0.3-6.5-1.6-9-4.8
		c-12.6-16.3-25.4-32.5-38.1-48.7c-0.7-0.9-1.4-1.9-2.5-3.3c6.7-0.1,12.4-0.6,18.3,3.6c15.2,10.9,34.3,9.7,49.6-1.6
		c1.6-1.2,4-2,6-2.1c12.7-0.3,25.5-0.6,37.9,3.3c36.7,11.7,58.4,36.6,64.7,74.5c3.7,22,6.4,44.2,9.5,66.4c0.9,6.6-3.4,12.8-9.8,13
		C316.3,384.2,305.3,383.9,294.1,383.9z"/>
	<path d="M85,252c14.4,18.4,28.6,36.4,43,54.7c-23.3,20.4-35.9,45.9-36.6,77.2c-11.3,0-22.4,0.3-33.5-0.1
		c-5.8-0.2-10.4-6.1-9.6-11.8c3.6-25.2,6.7-50.5,11.2-75.6C62.6,279,72,264.5,85,252z"/>
	<path d="M238.3,129.5c-0.6,13.4-0.2,26.2-2,38.7c-1.7,12.4-9.3,21.8-19.8,28.8c-1.3,0.9-2.6,2.3-3.2,3.8
		c-3.8,8.9-11.4,14.4-20.5,14.4c-9.2,0-16.9-5.4-20.8-14.5c-0.6-1.4-1.7-2.7-2.9-3.6c-14.1-9.5-21.3-22.8-21.4-39.8
		c-0.1-9,0-18,0-27.4C177.7,152.8,207.6,152.9,238.3,129.5z"/>
	<path d="M230.1,315.5c-12.3,16.4-24.7,32.9-37.4,49.8c-12.6-16.8-25-33.3-37.3-49.7C177.1,302.1,207.7,301.8,230.1,315.5z"/>
	<path d="M149.7,90.9c28.8,0,57.4,0,85.9,0c-2.3,17.4-22,33.2-41.7,33.6C173.1,124.9,153.1,109.8,149.7,90.9z"/>
	<path d="M114.2,383.8c-1.2-18.3,9.6-44,23-55.1c13.7,18.2,27.3,36.5,41.3,55.1C156.8,383.8,135.6,383.8,114.2,383.8z"/>
	<path d="M248.5,328.4c15,15.6,22.6,33.9,23,55.4c-21.5,0-42.6,0-64.5,0C220.9,365.2,234.7,346.9,248.5,328.4z"/>
	<path d="M102.5,237.8c7.3-2.7,13.9-5.2,20.6-7.5c0.7-0.3,2.3,0.3,2.8,1c14.2,18,28.4,36,42.7,54.2c-7.4,2.8-14.5,5.6-22,8.4
		C132.2,275.7,117.8,257.3,102.5,237.8z"/>
</g>
</svg>
