<svg xmlns="http://www.w3.org/2000/svg" width="25" height="31" viewBox="0 0 25 31">
    <g fill="none" fill-rule="evenodd">
        <g fill="#00AEEF" fill-rule="nonzero">
            <g>
                <path d="M23.309 3.452h-.892V25.36c0 1.455-1.185 2.64-2.64 2.64H3.557v.812c0 .93.755 1.685 1.685 1.685h18.064c.93 0 1.684-.755 1.684-1.685V5.137c0-.93-.751-1.685-1.681-1.685z" transform="translate(-158 -725) translate(158 725)"/>
                <path d="M10.742 27.045h9.032c.93 0 1.685-.755 1.685-1.685V1.685c0-.93-.755-1.685-1.685-1.685H7.739v.557c.006.058.01.118.01.179V5.35c0 1.31-1.064 2.373-2.373 2.373H.76c-.048 0-.099-.003-.146-.006H.029V25.36c0 .93.754 1.685 1.684 1.685h9.029zm.34-5.727H5.195c-.44 0-.796-.356-.796-.796 0-.44.357-.796.796-.796h5.892c.44 0 .796.357.796.796 0 .44-.36.796-.8.796zm5.893-4.063H5.195c-.44 0-.797-.357-.797-.796 0-.44.357-.797.796-.797h11.78c.44 0 .797.357.797.797 0 .44-.357.796-.796.796zm-11.78-5.908h11.78c.439 0 .796.357.796.796 0 .44-.357.796-.796.796H5.195c-.44 0-.797-.356-.797-.796 0-.44.357-.796.796-.796z" transform="translate(-158 -725) translate(158 725)"/>
                <path d="M.761 6.768H5.39c.77-.007 1.394-.631 1.4-1.402V.736c0-.427-.35-.71-.713-.71-.175 0-.35.063-.496.21L.258 5.557c-.446.446-.13 1.21.503 1.21z" transform="translate(-158 -725) translate(158 725)"/>
            </g>
        </g>
    </g>
</svg>
