<?xml version="1.0" encoding="utf-8"?>
<!-- Generator: Adobe Illustrator 25.0.0, SVG Export Plug-In . SVG Version: 6.00 Build 0)  -->
<svg version="1.1" id="Layer_1" xmlns="http://www.w3.org/2000/svg" xmlns:xlink="http://www.w3.org/1999/xlink" x="0px" y="0px"
	 viewBox="0 0 78 86" style="enable-background:new 0 0 78 86;" xml:space="preserve">
<style type="text/css">
	.st0{fill:#56AB2E;}
	.st1{fill:#FFFFFF;}
</style>
<path class="st0" d="M60.2,17.8C54.5,12.1,47,9,39,9s-15.5,3.1-21.2,8.8S9,31,9,39.1c0,14.2,9.9,26.4,23.6,29.4L39,77l6.4-8.5
	C59.1,65.5,69,53.2,69,39.1C69,31,65.9,23.5,60.2,17.8z M39,16.9c12.2,0,22,9.9,22,22.1s-9.8,22-22,22s-22-9.9-22-22.1
	S26.9,16.9,39,16.9z"/>
<circle class="st1" cx="39.3" cy="38.7" r="22.5"/>
<path class="st0" d="M39,20.8c-10,0-18.1,8.1-18.1,18.1S29,57,39,57s18.1-8.1,18.1-18.1S49,20.8,39,20.8z M51.7,47.6
	c0,0.8-0.6,1.4-1.4,1.4H33.2H33c-0.4,0-0.7-0.2-1-0.4l0,0l-5.3-5.3c-0.3-0.3-0.4-0.6-0.4-1v-12c0-0.8,0.6-1.4,1.4-1.4h5.4h0.2H40
	v2.5c0,1,0.8,1.8,1.8,1.8s1.8-0.8,1.8-1.8v-2.5h6.8c0.7,0,1.4,0.6,1.4,1.4v17.3H51.7z"/>
</svg>
