<?xml version="1.0" encoding="utf-8"?>
<!-- Generator: Adobe Illustrator 22.0.0, SVG Export Plug-In . SVG Version: 6.00 Build 0)  -->
<svg version="1.1" id="Capa_1" xmlns="http://www.w3.org/2000/svg" xmlns:xlink="http://www.w3.org/1999/xlink" x="0px" y="0px"
	 width="20" height="20" viewBox="0 0 512 512" style="enable-background:new 0 0 512 512;" xml:space="preserve">
<style type="text/css">
	.st0{fill:#ff4848;}
</style>
<path class="st0" d="M256,176.5c-16.5,0-30,13.5-30,30c0,16.5,13.5,30,30,30c16.5,0,30-13.5,30-30C286,190,272.5,176.5,256,176.5z"
	/>
<path class="st0" d="M256,0C140.2,0,46,94.2,46,210c0,44.1,13.5,86.2,39,122c24,33.5,56.7,59,94.8,73.8l63.5,99.3
	c2.8,4.3,7.5,6.9,12.6,6.9s9.9-2.6,12.6-6.9l63.5-99.3c38.2-14.8,70.9-40.3,94.9-73.8c25.5-35.7,39-77.9,39-122
	C466,94.2,371.8,0,256,0L256,0z M312.2,129.1l12.7-12.7c5.9-5.9,15.4-5.9,21.2,0c5.9,5.9,5.9,15.4,0,21.2l-12.7,12.7
	c-2.9,2.9-6.8,4.4-10.6,4.4c-3.8,0-7.7-1.5-10.6-4.4C306.4,144.4,306.4,134.9,312.2,129.1z M241,94c0-8.3,6.7-15,15-15s15,6.7,15,15
	v18c0,8.3-6.7,15-15,15s-15-6.7-15-15V94z M165.8,116.4c5.9-5.9,15.4-5.9,21.2,0l12.7,12.7c5.9,5.9,5.9,15.4,0,21.2
	c-2.9,2.9-6.8,4.4-10.6,4.4s-7.7-1.5-10.6-4.4l-12.7-12.7C160,131.7,160,122.2,165.8,116.4z M128.5,206.5c0-8.3,6.7-15,15-15h18
	c8.3,0,15,6.7,15,15s-6.7,15-15,15h-18C135.2,221.5,128.5,214.8,128.5,206.5z M199.8,283.9l-12.7,12.7c-2.9,2.9-6.8,4.4-10.6,4.4
	c-3.8,0-7.7-1.5-10.6-4.4c-5.9-5.9-5.9-15.4,0-21.2l12.7-12.7c5.9-5.9,15.4-5.9,21.2,0S205.6,278.1,199.8,283.9z M271,319
	c0,8.3-6.7,15-15,15s-15-6.7-15-15v-18c0-8.3,6.7-15,15-15s15,6.7,15,15V319z M256,266.5c-33.1,0-60-26.9-60-60
	c0-33.1,26.9-60,60-60c33.1,0,60,26.9,60,60C316,239.6,289.1,266.5,256,266.5z M346.2,296.7c-2.9,2.9-6.8,4.4-10.6,4.4
	s-7.7-1.5-10.6-4.4l-12.7-12.7c-5.9-5.9-5.9-15.4,0-21.2c5.9-5.9,15.4-5.9,21.2,0l12.7,12.7C352,281.3,352,290.8,346.2,296.7z
	 M368.5,221.5h-18c-8.3,0-15-6.7-15-15s6.7-15,15-15h18c8.3,0,15,6.7,15,15S376.8,221.5,368.5,221.5z"/>
</svg>
