<svg xmlns="http://www.w3.org/2000/svg" width="18" height="18" viewBox="0 0 18 18">
    <g fill="none" fill-rule="evenodd">
        <g fill="#212121">
            <g>
                <g>
                    <g>
                        <g>
                            <path d="M9 0C4.03 0 0 4.03 0 9s4.03 9 9 9 9-4.03 9-9-4.03-9-9-9zm0 4.5c.621 0 1.125.504 1.125 1.125 0 .622-.504 1.125-1.125 1.125s-1.125-.503-1.125-1.125C7.875 5.004 8.379 4.5 9 4.5zm1.688 9H7.312c-.31 0-.562-.252-.562-.562 0-.311.252-.563.563-.563h.562V9h-.563c-.31 0-.562-.252-.562-.563 0-.31.252-.562.563-.562h2.25c.31 0 .562.252.562.563v3.937h.563c.31 0 .562.252.562.563 0 .31-.252.562-.563.562z" transform="translate(-1001 -346) translate(550 55) translate(40 104) translate(380 187) translate(31)"/>
                        </g>
                    </g>
                </g>
            </g>
        </g>
    </g>
</svg>
