<svg xmlns="http://www.w3.org/2000/svg" xmlns:xlink="http://www.w3.org/1999/xlink" width="20" height="20" viewBox="0 0 20 20">
    <defs>
        <path id="l5kltuqaja" d="M0 0H20V20H0z"/>
    </defs>
    <g fill="none" fill-rule="evenodd">
        <g>
            <g>
                <g>
                    <g transform="translate(-1724 -110) translate(1712 28) translate(0 74) translate(11.999 8)">
                        <mask id="6vyb7j946b" fill="#fff">
                            <use xlink:href="#l5kltuqaja"/>
                        </mask>
                        <path fill="#00AEEF" d="M13.334 2.458c-2.413 0-4.375 1.963-4.375 4.375 0 2.413 1.962 4.375 4.375 4.375 2.412 0 4.375-1.962 4.375-4.375 0-2.412-1.963-4.375-4.375-4.375zm-.1 3.995l.398.124c.42.131.702.515.702.955v.135c0 .48-.34.882-.792.978v.105c0 .184-.149.333-.333.333-.184 0-.333-.149-.333-.333v-.195c-.322-.166-.542-.502-.542-.888 0-.184.15-.334.333-.334.184 0 .334.15.334.334 0 .183.15.333.333.333.184 0 .333-.15.333-.333v-.135c0-.147-.094-.275-.234-.318l-.397-.125c-.42-.13-.702-.514-.702-.954V6c0-.435.279-.805.667-.943v-.14c0-.184.149-.334.333-.334.184 0 .333.15.333.334v.14c.388.138.667.508.667.943 0 .184-.15.333-.333.333-.184 0-.334-.149-.334-.333 0-.184-.15-.333-.333-.333-.184 0-.333.15-.333.333v.135c0 .146.094.274.234.318zm3.172 12.88c-.914-.006-1.655-.751-1.655-1.666v-5.568c0-.211-.194-.37-.4-.327-3.095.645-6.059-1.733-6.059-4.939 0-3.205 2.963-5.584 6.059-4.939.206.043.4-.115.4-.326v-.235C14.75.597 14.154 0 13.417 0H2.584C1.848 0 1.25.597 1.25 1.333v16.334C1.25 18.955 2.295 20 3.584 20h12.833c.193 0 .348-.164.333-.36-.014-.175-.168-.305-.344-.307zM4.5 4.875h2.833c.184 0 .333.15.333.333 0 .184-.149.334-.333.334H4.5c-.185 0-.334-.15-.334-.334 0-.184.15-.333.334-.333zm0 3.75h2.833c.184 0 .333.15.333.333 0 .184-.149.334-.333.334H4.5c-.185 0-.334-.15-.334-.334 0-.184.15-.333.334-.333zm7 7.917h-7c-.185 0-.334-.15-.334-.334 0-.184.15-.333.334-.333h7c.184 0 .333.15.333.333 0 .184-.15.334-.333.334zm0-3.5h-7c-.185 0-.334-.15-.334-.334 0-.184.15-.333.334-.333h7c.184 0 .333.15.333.333 0 .184-.15.334-.333.334zm7.248 4.124c.002.921-.745 1.668-1.665 1.668s-1.665-.745-1.665-1.666c0-3.079-.003-4.278 0-4.753 0-.184.15-.332.333-.332h1.665c.692 0 1.26.527 1.327 1.201l.005 3.882z" mask="url(#6vyb7j946b)"/>
                        <path fill="#00548E" d="M13.334 2.458c-2.413 0-4.375 1.963-4.375 4.375 0 2.413 1.962 4.375 4.375 4.375 2.412 0 4.375-1.962 4.375-4.375 0-2.412-1.963-4.375-4.375-4.375z" mask="url(#6vyb7j946b)"/>
                        <path fill="#FFF" d="M13.235 6.453l.397.124c.42.131.702.515.702.955v.135c0 .48-.34.882-.792.978v.105c0 .184-.149.333-.333.333-.184 0-.333-.149-.333-.333v-.195c-.322-.166-.542-.502-.542-.888 0-.184.15-.334.333-.334.184 0 .334.15.334.334 0 .183.15.333.333.333.184 0 .333-.15.333-.333v-.135c0-.147-.094-.275-.234-.318l-.397-.125c-.42-.13-.702-.514-.702-.954V6c0-.435.279-.805.667-.943v-.14c0-.184.149-.334.333-.334.184 0 .333.15.333.334v.14c.388.138.667.508.667.943 0 .184-.15.333-.333.333-.184 0-.334-.149-.334-.333 0-.184-.15-.333-.333-.333-.184 0-.333.15-.333.333v.135c0 .146.094.274.234.318z" mask="url(#6vyb7j946b)"/>
                    </g>
                </g>
            </g>
        </g>
    </g>
</svg>
