<svg xmlns="http://www.w3.org/2000/svg" width="20" height="20"  fill="#ff4848" xmlns:v="https://vecta.io/nano"><path d="M19.936 8.848c-.042-.102-.103-.194-.18-.272l-2.5-2.499c-.325-.325-.852-.325-1.178 0s-.326.854 0 1.179l1.078 1.077H12.5c-.461 0-.834.373-.834.833s.373.834.834.834h4.655l-1.078 1.077c-.326.326-.326.854 0 1.179a.83.83 0 0 0 .59.244c.213 0 .426-.081.588-.244l2.5-2.5a.82.82 0 0 0 .18-.271c.085-.204.085-.434 0-.637zm-5.769 2.819c-.46 0-.833.373-.833.833v4.167H10V3.333c0-.367-.242-.692-.595-.798l-2.894-.868h6.822v4.166c0 .46.372.834.833.834S15 6.293 15 5.833v-5c0-.46-.373-.833-.834-.833H.834C.804 0 .777.012.748.016a.67.67 0 0 0-.112.02.81.81 0 0 0-.241.103C.376.151.354.152.336.165.33.17.327.179.321.185a.79.79 0 0 0-.222.261C.087.47.085.494.076.517.049.581.02.642.01.712.006.737.013.761.012.785.012.802.001.817.001.833V17.5a.83.83 0 0 0 .67.817l8.333 1.666a.75.75 0 0 0 .163.017.83.83 0 0 0 .834-.833v-.834h4.166c.461 0 .834-.373.834-.833v-5c0-.46-.373-.833-.834-.833z"/></svg>