<svg xmlns="http://www.w3.org/2000/svg" xmlns:xlink="http://www.w3.org/1999/xlink" width="135" height="50" xmlns:v="https://vecta.io/nano"><defs><path id="A" d="M0 0H134.525V50H0z"/></defs><g fill-rule="evenodd"><mask id="B" fill="#fff"><use xlink:href="#A"/></mask><g fill="#fff"><g mask="url(#B)"><path d="M103.283 41.003l-.088-.088c-1.466-.968-2.814-.645-4.191.41l.088-.82-2.345.117-.762 3.37-1.436 6.038h2.55l.205-1.231.527-2.462c.733.791 1.583 1.172 2.609 1.025.41-.058.791-.175 1.201-.263.675-.44 1.349-.909 1.759-1.642.82-1.524.996-3.018-.117-4.454zm-3.664 4.513c-.85 0-1.436-.557-1.407-1.319.03-1.055.88-1.934 1.905-1.905.821 0 1.378.557 1.378 1.29 0 1.055-.88 1.934-1.876 1.934zM72.568 41.94c-.176 0-.323.03-.499.03-.058 0-.117-.03-.175-.03h-4.191c-.03.03-.03.03-.06.03l-.41 1.875h1.993c.294.06.264.206.118.381-.41.557-.997.821-1.642.91-1.025.146-2.11-.235-2.461-1.115-.557-.967-.176-2.55.644-3.34.264-.235.586-.411.88-.616.029-.03.029-.03.058-.03 1.26-.644 2.345-.38 3.576.909l2.14-1.29c-.323-.762-1.173-1.553-2.14-1.875-2.081-.733-4.074-.41-5.92.762l-.821.762c-.704.703-1.114 1.582-1.436 2.49l-.088.616c-.117.909-.088 1.789.322 2.639.674 1.378 1.876 1.993 3.312 2.257 1.172.205 2.315.088 3.458-.205.323-.176.675-.293.938-.499.352-.263.645-.556.938-.879.293-.293.645-.557.792-.879.351-.909.615-1.846.908-2.755-.059-.088-.146-.117-.234-.147zm13.746.206c-.06-.118-.118-.264-.206-.381-1.26-1.583-2.902-1.671-4.69-1.202-.087.03-.146.03-.234.03l-.762.38-.733.586c-.498.645-.908 1.29-1.055 2.11-.263 1.525.264 2.638 1.612 3.371 1.231.41 2.462.41 3.693-.059 1.466-.556 2.257-1.7 2.58-3.194v-.47l-.206-1.171zm-2.229 1.612c-.176 1.055-.88 1.729-1.876 1.729-.88 0-1.377-.557-1.23-1.436.146-.909.673-1.583 1.494-1.759 1.055-.264 1.788.381 1.612 1.466zm11.109-3.254l-2.404.118-1.025 4.161c-.03.059-.088.118-.147.176-.322.557-1.026.792-1.583.498-.351-.175-.41-.527-.351-.85l.674-3.077.205-.967h-2.257c-.117 0-.205.146-.293.234 0 .059-.03.118-.03.176 0 .088 0 .147-.029.235l-.762 3.4c-.205 1.025.176 1.846 1.143 2.315 1.114.557 2.257.498 3.43.234 1.201-.293 2.08-.996 2.403-2.227l1.055-4.22c.03 0 0-.06-.03-.206zm-16.442.674l.175-.762c-.996-.117-1.846.206-2.52 1.026l.088-.908h-1.876c-.322 0-.469.088-.527.41l-.968 4.074-.44 2.022H75c.059-.088.176-.146.205-.234l.352-1.29.41-1.876c.03-.029.03-.058.03-.088.117-.234.263-.44.38-.674.06 0 .118-.029.147-.029l.352-.352h.03l.029-.029h.556l.968.03.058-.06c0-.41.117-.82.235-1.26z"/></g><g mask="url(#B)"><path d="M59.202 35.11c-.088.118-.175.206-.234.323a8.9 8.9 0 0 1-2.96 3.898c-1.143.85-2.52 1.407-3.957 1.436-3.634.118-7.298.088-10.932.147h-.996c.117-.586.234-1.084.351-1.583.176-.732.44-1.465.587-2.198.087-.44.293-.615.762-.615h8.733c1.056 0 2.023-.264 2.697-1.114.293-.381.498-.85.791-1.378-.352-.029-.557-.029-.733-.029-1.494 0-3.018.059-4.513-.03-1.407-.058-2.814-.263-4.074-1.054-.938-.616-1.407-1.495-1.583-2.58-.234-1.289.03-2.55.352-3.78l1.847-7.298-1.32 2.228-5.158 9.026-1.553 2.697c-.088.176-.176.38-.264.557-.029.029-.058.088-.088.117-.058.088-.117.205-.175.293 0 .03-.03.059 0 .059-.118.175-.235.322-.352.498l-2.814 4.865c-.146.235-.322.469-.41.733-.176.469-.498.586-.997.586-1.963-.03-3.956-.03-5.92 0-.38 0-.527-.088-.527-.498 0-1.847-.059-3.693-.088-5.54l-.176-9.671V22.39c-.059 0-.117-.03-.176-.03-.264.528-.557 1.027-.82 1.554l-3.43 6.682-2.813 5.51-2.287 4.398c-.147.293-.352.44-.704.41-2.022-.03-4.044-.03-6.067 0-.41 0-.527-.088-.556-.528l-.47-7.884-.38-5.627-.498-6.917-.293-4.425-.088-.791c-.029-.264.088-.41.381-.41h5.598c.293 0 .381.117.381.41l.176 5.451.205 5.95.176 5.246c.03.645.088 1.319.205 1.993.176-.293.352-.557.499-.85l4.103-7.972 5.129-9.906c.146-.264.322-.352.586-.352h5.92c.44 0 .557.176.557.557 0 .527 0 1.084.03 1.612l.116 4.865.088 3.927.206 7.005c0 .381.058.791.117 1.26.293-.498.557-.938.791-1.407l3.605-6.594 4.63-8.5c.44-.79.85-1.611 1.32-2.403.088-.146.322-.322.498-.322h9.613c.088 0 .147.03.264.03-.03.175 0 .351-.059.527l-1.993 7.444-1.201 4.807c-.088.322-.088.703-.06 1.026.03.644.528 1.025 1.35 1.055 1.552.029 3.135.029 4.688 0 .118 0 .352-.147.381-.235.176-.674.294-1.348.41-2.022l.089-.088a5.71 5.71 0 0 1 .205-.674l1.319-4.719 1.436-5.451c.117-.41.176-.85.293-1.29.03-.088.059-.205.117-.293l.088-.088 5.305-.029c.03.147.146.322.117.44l-.791 3.048c-.03.146-.059.263-.059.41-.117.498-.264.996-.38 1.524l-.382 1.524c-.264.469-.41.967-.322 1.524v-.03h-.03c-.117.382-.263.792-.38 1.173v.088l-.704 2.345a68.52 68.52 0 0 0-.645 2.608c-.117.47-.263.938-.38 1.436-.089.293-.206.586-.265.88l-1.025 3.663c-.03.059-.03.117-.03.176zm4.72-12.338v-.176c.058-.058.116-.117.146-.176l.732-2.725.44-1.876.762-2.814c.117-.498.352-.703.909-.703l19.255.03c1.465 0 2.93.146 4.28.82 1.406.703 2.021 1.876 2.11 3.37.087 1.349-.294 2.638-.646 3.957l-1.465 5.48-1.524 5.657c-.03.147-.264.323-.41.352-1.7.03-3.37 0-5.07 0-.06 0-.089-.03-.176-.059l.498-1.993 1.582-6.037 1.231-4.66a2.86 2.86 0 0 0 .03-1.32c-.059-.263-.381-.585-.645-.644-.645-.146-1.29-.176-1.964-.205s-1.348 0-2.022 0c-.234 0-.41.03-.469.322l-2.462 9.32-1.29 4.778c-.087.38-.263.498-.644.498-1.524-.03-3.078 0-4.602 0-.146 0-.263-.03-.527-.03l3.927-14.859c-.762-.03-1.407-.088-2.051-.088-.997 0-2.023.03-3.02.088-.146 0-.35.205-.38.323l-1.26 4.748-2.17 8.03c-.117.44-.204.909-.292 1.378-.088.351-.352.41-.674.41h-5.012l-.117-.117c.029-.118.088-.235.117-.352.205-.791.38-1.583.586-2.403.059-.176.117-.381.205-.557.059-.264.117-.498.205-.762l.176-.674c.088-.235.176-.499.235-.733l.527-2.198c.176-.674.381-1.348.557-1.993v-.176c.147-.381.264-.82.381-1.23zm45.134 18.142l.996-3.78 2.198-8.266 2.17-8.235 1.582-5.891c.088-.323.264-.44.586-.44l9.818.03c1.7.029 3.37.351 4.778 1.406 1.201.909 1.905 2.14 2.198 3.634.41 2.257-.088 4.426-.85 6.536-.938 2.52-2.52 4.572-4.69 6.155-1.348.996-2.872 1.612-4.542 1.7-2.11.146-4.25.146-6.39.205-.351 0-.498.117-.586.44l-1.553 5.89c-.117.47-.322.645-.791.616l-4.309-.03c-.176.03-.351.03-.615.03zm13.745-22.01v.087c-.644 0-1.29.03-1.934 0-.38-.029-.498.147-.557.47-.117.585-.264 1.2-.44 1.787l-2.08 7.708c-.088.352 0 .47.351.47 1.202-.03 2.433 0 3.635-.118.762-.059 1.524-.293 2.227-.557 1.114-.44 1.876-1.29 2.403-2.315.792-1.524 1.29-3.136 1.29-4.895 0-1.29-.616-2.11-1.876-2.345-.996-.175-2.022-.205-3.019-.293zm-15.855 2.93c.088-.351.146-.645.205-.938.176-.908-.205-1.553-1.114-1.817-.527-.146-1.084-.264-1.612-.264a477.5 477.5 0 0 0-9.115 0c-.351 0-.557-.058-.469-.468l.967-3.576c.088-.293.235-.41.557-.41l10.962.029c1.348.03 2.696.293 3.868 1.084 1.202.82 1.788 2.023 1.876 3.488.059 1.348-.293 2.608-.645 3.898l-1.963 7.444-.88 3.254c-.088.351-.234.468-.615.468-4.63-.029-9.262 0-13.892-.029a5.29 5.29 0 0 1-2.58-.674c-1.318-.733-1.846-1.934-1.787-3.37.058-1.817.674-3.517 1.758-5.012 1.085-1.524 2.609-2.403 4.397-2.696 1.348-.235 2.725-.323 4.073-.381 1.818-.06 3.635-.03 5.452-.03h.557zm-1.114 4.426c-.059-.03-.088-.059-.117-.059-2.198 0-4.397-.03-6.595.03-.879.029-1.67.38-2.11 1.23-.264.528-.527 1.114-.264 1.671s.909.498 1.436.498l6.243.03c.381 0 .528-.147.616-.47l.79-2.93z"/></g></g><g fill="#0daae6" mask="url(#B)"><path d="M134.144 18.23c-.03-.088-.088-.176-.117-.264-.733-1.993-2.169-3.283-4.132-4.015-1.407-.528-2.902-.616-4.397-.616h-9.35l-.79.03-1.173 4.396h-.146c-.059-.117-.176-.205-.205-.352-.528-1.788-1.759-2.843-3.459-3.488-1.494-.555-3.019-.585-4.572-.585-3.341-.03-6.682 0-9.994-.03-.469 0-.645.147-.762.615l-1.172 4.485c-.03.146-.118.263-.206.38-.088-.087-.117-.175-.117-.234 0-2.784-1.934-4.367-4.337-4.894-1.584-.352-3.195-.352-4.807-.352H58.851c-.41 0-.498.234-.586.557l-1.29 4.894-1.055 4.074-1.113 4.133c-.03.176-.088.351-.118.527-.058.323-.117.645-.469.792h-3.751c-.645-.147-.645-.147-.557-.85l.176-1.055c.059-.176.117-.381.146-.557 0-.059.03-.118.03-.176l.351-1.348c.03-.03.03-.059.03-.088l.38-1.436c.06-.118.118-.235.147-.352l1.759-6.565.645-2.491c-.235 0-.41-.03-.587-.03H41.823c-.293 0-.469.088-.586.352l-1.378 2.491-.938 1.73-.967 1.934-1.553 2.813-3.957 7.21c-.029 0-.058-.03-.117-.03l-.44-16.381c-.146-.03-.263-.03-.38-.03h-7.68c-.322 0-.439.176-.556.381l-2.52 4.865-2.492 4.778-.938 1.817-1.143 2.198c-.058.117-.117.264-.205.38l-.996 2.053c-.088-.03-.147-.03-.235-.06v-2.549l-.205-6.624-.088-2.99-.03-.849-.058-.703-.088-2.14c0-.41-.146-.527-.557-.527H5.891l.176 3.048c0 .175 0 .38.03.556l.234 2.873.351 5.158v.322l.293 3.722.616 9.057c.03.322 0 .674 0 .996 0 .147 0 .323.03.47l.175 1.816c0 .381.147.499.498.47h7.21a3.63 3.63 0 0 1 .557.058c.528-.059.586-.557.791-.909l6.536-12.66 1.055-1.994c.059 0 .117.03.147.03l.117 8.499c.03.146.059.293.059.469l.117 6.067c0 .293.058.469.41.469h8.236l.82-1.349c0-.029 0-.058.03-.058l.557-.967 1.612-2.873 5.45-9.466c.06-.117.147-.205.235-.293.088.351.088.615.059.908l-.147 1.935c0 2.227 1.26 3.956 3.37 4.689 1.349.469 2.756.557 4.163.586h2.432c0 .059.03.117.03.176-.323.117-.616.264-.968.322a10.46 10.46 0 0 1-1.377.088h-8.822c-.38 0-.557.117-.645.498l-1.172 4.485-.322 1.377c.175 0 .263.03.351.03l11.518-.03c1.026-.03 2.081-.234 3.078-.44 1.495-.351 2.725-1.172 3.868-2.168l.968-1.29c.732-.85 1.172-1.817 1.524-2.872.029-.03.029-.059.029-.088.059-.03.117-.059.176-.117h.527c.03-.059.059-.088.088-.147-.029.03-.058.088-.088.147h1.143c.03-.059.06-.117.06-.147-.03.059-.06.117-.06.147h4.955c.293.088.44-.03.527-.352l.616-2.14.879-3.516.82-2.931v-.088l.997-3.898.498-1.73c.088-.087.147-.263.235-.263h3.194l-.938 3.312-.205.938-.527 1.905c0 .088 0 .146-.03.234l-1.612 6.067-.615 2.403c.088.03.117.059.146.059h7.298c.117 0 .293-.147.323-.264l2.11-7.913 1.7-6.33c.058-.177.263-.411.38-.411a21.92 21.92 0 0 1 2.404.058c.645.03.703.147.586.792 0 .058-.03.117-.058.176l-1.993 7.59-.675 2.726c-.058.264-.175.528-.263.791v.088l-.645 2.667h7.591c.03-.029.03-.087.058-.117l.587-2.344c.762 1.201 1.758 1.905 2.989 2.198.909.205 1.876.293 2.814.322h12.983a3.3 3.3 0 0 1 .498.03L107.826 42c.206 0 .323.03.47.03h6.594c.44 0 .586-.147.703-.558l1.583-6.008c.088-.322.205-.41.557-.41l5.539-.176c2.608-.205 4.836-1.348 6.711-3.136 2.052-1.993 3.43-4.367 4.133-7.151l.469-1.759v-2.55c-.205-.732-.323-1.406-.44-2.051zm-40.562 1.553c.117 0 .234-.03.38-.03h9.467c.704 0 1.378.089 2.081.177.645.088.762.263.703.938h-.586l-7.063.087c-1.934.088-3.722.616-5.334 1.788l-.235.147h-.117l.704-3.107zm-37.906 7.18h.098c-.147.118-.244.235-.293.382.049-.147.097-.264.195-.381zm3.322 8.91l.762-.556-.762.556zm1.23-4.63l-1.025 3.663c0 .059 0 .117-.03.176-.087.117-.175.205-.234.322-.615 1.583-1.641 2.902-2.96 3.898-1.143.85-2.52 1.407-3.957 1.437-3.634.117-7.297.088-10.932.146h-.996c.117-.586.234-1.084.352-1.583.175-.732.44-1.465.586-2.198.088-.44.293-.615.762-.615h8.734c1.055 0 2.022-.264 2.696-1.114.293-.38.498-.85.791-1.377-.351-.03-.557-.03-.732-.03-1.495 0-3.02.059-4.514-.029-1.407-.059-2.814-.264-4.074-1.055-.938-.616-1.407-1.495-1.582-2.58-.235-1.289.029-2.549.351-3.78l1.847-7.298-1.32 2.228-5.157 9.027-1.554 2.696c-.088.176-.176.381-.264.557-.029.03-.058.088-.087.117-.06.088-.118.205-.176.293 0 .03-.03.059 0 .059-.118.176-.235.322-.352.498l-2.814 4.865c-.146.235-.322.47-.41.733-.176.469-.498.586-.996.586-1.964-.03-3.957-.03-5.92 0-.382 0-.528-.088-.528-.498 0-1.847-.059-3.693-.088-5.54l-.176-9.671v-2.814c-.059 0-.117-.029-.176-.029-.264.528-.557 1.026-.82 1.553l-3.43 6.683-2.813 5.51-2.286 4.396c-.147.293-.352.44-.704.41-2.022-.03-4.044-.03-6.066 0-.41 0-.528-.088-.557-.527l-.47-7.884-.38-5.628-.47-6.887-.292-4.426-.088-.79c-.03-.265.088-.411.38-.411h5.599c.293 0 .38.117.38.41l.177 5.451.205 5.95.176 5.246c.029.645.087 1.32.205 1.993.176-.293.351-.557.498-.85l4.103-7.972 5.13-9.906a.59.59 0 0 1 .585-.352h5.92c.44 0 .557.176.557.557 0 .528 0 1.085.03 1.612l.205 8.793.205 7.004c0 .381.059.792.117 1.26.293-.497.557-.937.792-1.406l8.235-15.094c.44-.791.85-1.612 1.32-2.403.087-.147.321-.323.497-.323h9.613c.088 0 .147.03.264.03-.03.176 0 .351-.058.527l-1.993 7.445-1.202 4.806c-.088.323-.088.704-.059 1.026.03.645.528 1.026 1.349 1.055a122.16 122.16 0 0 0 4.689 0c.117 0 .352-.146.38-.234.177-.674.294-1.349.411-2.023l.088-.088c.059-.234.117-.44.205-.674l1.32-4.718 1.435-5.452c.118-.41.176-.85.293-1.29.03-.087.059-.204.118-.292l.088-.088 5.304-.03c.03.147.147.323.118.44l-.792 3.048c-.03.147-.058.264-.058.41l-.762 3.049c-.264.468-.41.967-.323 1.524v-.03h-.03c-.116.381-.263.792-.38 1.173v.088l-.703 2.344c-.235.85-.44 1.73-.645 2.609l-.381 1.436c-.088.264-.205.557-.293.85zm28.723 2.373c-.03.146-.264.322-.41.351-1.7.03-3.371 0-5.07 0-.06 0-.089-.029-.177-.058l.499-1.993 1.582-6.038 1.231-4.66c.117-.41.117-.908.03-1.319-.06-.263-.382-.586-.645-.644-.645-.147-1.29-.176-1.964-.206s-1.348 0-2.022 0c-.235 0-.41.03-.47.323l-2.461 9.32-1.29 4.777c-.088.381-.263.498-.644.498-1.525-.029-3.078 0-4.602 0-.146 0-.264-.029-.527-.029l3.927-14.86c-.762-.029-1.407-.087-2.052-.087-.996 0-2.022.03-3.018.088-.147 0-.352.205-.381.322l-1.26 4.748-2.17 8.03c-.117.44-.205.91-.293 1.378-.088.352-.351.41-.674.41h-5.011l-.118-.117c-.117-.117-.117-.205-.117-.293-.03.088 0 .205.117.293.03-.117.088-.234.118-.352.205-.79.38-1.582.586-2.403.058-.176.117-.38.205-.557.058-.263.117-.498.205-.762l.176-.674c.088-.234.176-.498.234-.733l.528-2.198c-.088.176-.176.323-.235.499.06-.176.147-.323.235-.499.176-.674.38-1.348.557-1.993v-.175l.351-1.26v-.177c.06-.058.118-.117.147-.175l.733-2.726.44-1.876.761-2.813c.118-.499.352-.704.909-.704l19.255.03c1.466 0 2.931.146 4.28.82 1.406.704 2.022 1.876 2.11 3.37.088 1.349-.293 2.638-.645 3.957l-1.466 5.48a160.52 160.52 0 0 1-1.494 5.687zm20.047.38c-4.631-.029-9.262 0-13.892-.029a5.29 5.29 0 0 1-2.58-.674c-1.318-.732-1.846-1.934-1.787-3.37.058-1.817.674-3.517 1.758-5.012 1.085-1.524 2.609-2.403 4.396-2.696 1.349-.235 2.726-.323 4.074-.381 1.817-.059 3.634-.03 5.452-.03h.556a19.29 19.29 0 0 0 .206-.937c.175-.909-.206-1.554-1.114-1.818-.528-.146-1.085-.263-1.612-.263-3.048-.03-6.067-.03-9.115 0-.352 0-.557-.059-.469-.47l.967-3.575c.088-.293.235-.41.557-.41l10.961.03c1.349.028 2.697.292 3.87 1.084 1.2.82 1.787 2.022 1.875 3.487.058 1.348-.293 2.609-.645 3.898l-1.964 7.445-.879 3.253c-.088.322-.234.469-.615.469zm23.534-8.088c-.938 2.52-2.52 4.572-4.69 6.154-1.347.997-2.871 1.612-4.542 1.7-2.11.147-4.25.147-6.39.205-.35 0-.497.118-.585.44l-1.554 5.891c-.117.469-.322.645-.79.615l-4.31-.029h-.615l.997-3.78 2.198-8.266 2.169-8.235 1.582-5.891c.088-.323.264-.44.587-.44l9.818.03c1.7.029 3.37.351 4.777 1.406 1.202.909 1.905 2.14 2.198 3.635.41 2.315-.088 4.484-.85 6.565zm-6.741-6.711c-.996-.176-1.993-.205-2.99-.293v.088h-1.933c-.381-.03-.499.146-.557.469l-.44 1.788-2.08 7.708c-.089.351 0 .469.35.469l3.635-.118c.762-.058 1.524-.293 2.228-.557 1.113-.44 1.846-1.29 2.403-2.315.791-1.524 1.29-3.136 1.29-4.894 0-1.32-.616-2.11-1.906-2.345zm.938 2.491c-.117 1.73-.586 3.4-1.553 4.865-.44.674-1.085 1.143-1.847 1.436-1.377.528-2.813.41-4.308.41l.586-2.256 1.466-5.54c.117-.468.263-.703.82-.644l3.576.205c.938.059 1.319.557 1.26 1.524zm-27.608 4.543c-.88.03-1.67.381-2.11 1.23-.264.528-.528 1.115-.264 1.671s.908.499 1.436.499l6.243.029c.38 0 .527-.147.615-.469l.762-2.901c-.059-.03-.088-.059-.117-.059-2.169-.03-4.367-.059-6.565 0zm5.1 2.227a.34.34 0 0 1-.264.176c-2.023 0-4.045 0-6.067-.03a.47.47 0 0 1-.147-.058c.088-.791.352-1.113 1.055-1.29.381-.087.733-.146 1.114-.146h4.66l-.352 1.348z"/></g><path fill="#f4933d" d="M132.679 9.789l-3.664-.674c-.088 0-.176 0-.264-.03l-.85-.175h-.175l-1.173-.235-3.575-.527c-.264-.059-.528-.147-.792-.176l-3.546-.498-6.682-.88 1.788-.674c-.352-.088-.557-.205-.792-.234l-6.946-.85-5.774-.293-7.18-.352c-3.165-.059-6.36.03-9.525.03-2.316 0-4.602-.06-6.917-.06h-.44c.118-.116.176-.263.323-.35l1.494-.792h.059c1.055-.147 1.553-1.114.967-2.023l1.641-.205 2.14-.263h.176l.88-.206c0-.058-.03-.117-.03-.175H82.62c-.205 0-.38-.03-.586-.03v.03c-.498 0-1.026-.03-1.524-.03-.264-.03-.498-.03-.762-.088-.147-.029-.322-.058-.469-.117H66.882c-.264.059-.499.147-.762.147l-2.287.029-4.542.234-2.286.176-.733.03-2.286.175h-.469L51.7.879c-.147 0-.323 0-.47.03l-1.787.175h-.38l-1.261.264 1.26-.264-4.924.41-.703.118c-.147 0-.293.03-.469.03l-1.319.175c-.176 0-.38.03-.557.03l-1.084.146c-.147 0-.293 0-.44.03l-1.319.175h-.176l-1.26.176-2.52.264-2.023.322c-.087 0-.175 0-.263.03l-2.58.351c-.087 0-.175 0-.293.03l-2.52.351-2.081.381h-.147l-4.572.762-1.729.264-15.24 2.403c-.967.176-1.964.293-2.755 1.026v.557c.264.234.527.557.82.645.704.205 1.407.351 2.11.41 1.378.088 2.697-.147 3.987-.557l4.865-1.495 1.934-.615 5.51-1.495c.059 0 .117 0 .176-.03l.498-.175c.059-.03.117-.059.147-.088.117-.058.205-.117.322-.146-.117.029-.205.088-.322.146-.117.117-.176.147-.205.147.146 0 .322 0 .469-.03l3.194-.674 2.814-.586h.176c.058 0 .117.03.205.03.117 0 .234-.03.352-.03l.41-.176 1.055-.176h.088l2.08-.38 1.144-.176 2.667-.381c.117 0 .234 0 .352-.03l.967-.176h.732l1.935-.351c.058 0 .117 0 .176-.03h.205l1.26-.175h.059l.967-.176c.176 0 .38-.03.557-.03l.586-.058c.058 0 .117-.03.176-.03a1.05 1.05 0 0 1 .293-.058c.088 0 .176 0 .264-.03l4.425-.41c.381-.03.733-.088 1.114-.146l.733-.03c.029 0 .058-.029.087-.058-.029.029-.058.029-.087.058l1.524-.176.732-.029 2.286-.176.762-.029c.059-.03.118-.059.176-.117-.058.03-.117.088-.176.117h1.495l.586-.059L58.5.996h3.194l2.169-.029c.176-.03.38-.058.557-.058l5.334-.147-1.202-.381 1.202.381a1.44 1.44 0 0 1 .088.205l-2.58.205h-.146c-.088 0-.205 0-.293-.029l-2.08.117h-.177c0 .03-.03.059-.03.088h-.468l-7.59.586-7.562.704-6.39.703-5.539.791-8.411 1.583c-.44.088-.85.235-1.26.352 0 .03-.03.03-.03.058 0-.029.03-.029.03-.058h-.47c-.029 0-.058.03-.088 0-.087.058-.146.117-.234.146-.117 0-.234 0-.352.03-.029.029-.058.029-.058 0-.088.029-.205.058-.293.117v.352c1.084.469 2.168.615 3.311.293h.088c.03-.059.088-.088.118-.118.088-.058.175-.087.263-.087-.088 0-.175.029-.263.087-.03.03-.088.06-.118.118.176 0 .381 0 .557-.03.176-.058.352-.117.528-.146l4.543-.528 5.773-.732 9.291-.762 2.462-.088 2.052-.147h2.637c0 .059 0 .088.03.147l-1.554.175-6.653.821-7.708 1.29c-.088 0-.146.029-.234.029l-1.436.528c-.088.087-.293.205-.264.234.088.147.205.381.352.41.468.118.967.205 1.436.176L46.6 8.03l4.514-.351 4.513-.293c.381-.059.733-.147 1.114-.147l11.108-.41c.176 0 .38 0 .557.03.058 0 .088.116.117.175h.293l4.836-.176.762-.03 1.905-.175h8.294c.147 0 .293.117.41.176l-7.59.088.175.088h6.272l2.667-.03 5.569.118c.176 0 .322.058.498.088l4.25.146 5.803.235 2.93.175h.675l.498.088 6.184.323 10.229.938 8.529.879c.732.088 1.465.088 2.198.146l-1.231-.322zM26.863 6.272c-.66 0 0 0 0 0zm2.885.528h.293c-.117.39-.234.39-.293 0zm27.11-1.26c3.78-.616 7.562-.939 11.372-.997v.205l-11.372.791zM81.975.204l-.615.293.615-.293z" mask="url(#B)"/></g></svg>