<svg xmlns="http://www.w3.org/2000/svg" xmlns:xlink="http://www.w3.org/1999/xlink" width="20" height="20" xmlns:v="https://vecta.io/nano"><defs><path id="A" d="M0 0H20V20H0z"/></defs><g fill="none" fill-rule="evenodd"><mask id="B" fill="#fff"><use xlink:href="#A"/></mask><g mask="url(#B)"><path fill="#fff" d="M18.274 16.87l-1.43-2.386a7.07 7.07 0 0 1-1.01-3.645V8.75a5.84 5.84 0 0 0-4.168-5.587V1.667C11.667.747 10.919 0 10 0a1.67 1.67 0 0 0-1.667 1.667v1.496c-2.407.719-4.167 2.95-4.167 5.587v2.09c0 1.283-.349 2.543-1.009 3.643l-1.43 2.385c-.078.13-.08.29-.006.42s.212.212.362.212h15.834c.15 0 .289-.08.363-.21s.072-.292-.005-.42z"/></g><g mask="url(#B)"><path fill="#fff" d="M7.377 18.333c.47.982 1.465 1.667 2.624 1.667s2.154-.685 2.624-1.667H7.377z"/></g></g></svg>