<?xml version="1.0" encoding="utf-8"?>
<!-- Generator: Adobe Illustrator 22.0.0, SVG Export Plug-In . SVG Version: 6.00 Build 0)  -->
<svg version="1.1" id="Layer_1" xmlns="http://www.w3.org/2000/svg" xmlns:xlink="http://www.w3.org/1999/xlink" x="0px" y="0px"
	 viewBox="0 0 384 384" width="20" height="20" class="st0" style="enable-background:new 0 0 384 384;" xml:space="preserve">
<g>
<style type="text/css">
	.st0{fill:#FFFFFF;}
</style>
	<path d="M90.8,0c67.5,0,135,0,202.5,0c0.1,1.1,0.2,2.2,0.2,3.4c0,125.6,0,251.2,0,376.8c0,1.2-0.1,2.4-0.2,3.6
		c-18.9,0-37.4,0-56.3,0c0-38,0-75.8,0-113.5c-30.2,0-60,0-90,0c0,38,0,75.7,0,113.4c-18.8,0-37.3,0-56.1,0
		C90.8,255.7,90.8,127.8,90.8,0z M135.6,67.3c0-7.6,0-14.8,0-22.1c-7.5,0-14.8,0-22,0c0,7.5,0,14.8,0,22.1
		C121,67.3,128.2,67.3,135.6,67.3z M158.4,67.2c7.6,0,14.9,0,22.2,0c0-7.5,0-14.7,0-22c-7.5,0-14.7,0-22.2,0
		C158.4,52.6,158.4,59.8,158.4,67.2z M225.5,67.3c0-7.6,0-14.9,0-22.2c-7.5,0-14.7,0-22,0c0,7.5,0,14.7,0,22.2
		C210.9,67.3,218.1,67.3,225.5,67.3z M270.6,45.3c-7.6,0-14.9,0-22,0c0,7.5,0,14.8,0,22c7.5,0,14.7,0,22,0
		C270.6,59.9,270.6,52.7,270.6,45.3z M113.5,90.1c0,7.7,0,15,0,22.2c7.5,0,14.7,0,22,0c0-7.5,0-14.8,0-22.2
		C128.1,90.1,120.9,90.1,113.5,90.1z M180.5,112.3c0-7.6,0-14.9,0-22c-7.5,0-14.8,0-22,0c0,7.5,0,14.7,0,22
		C165.8,112.3,173,112.3,180.5,112.3z M203.4,112.3c7.5,0,14.7,0,22.1,0c0-7.5,0-14.8,0-22c-7.5,0-14.8,0-22.1,0
		C203.4,97.8,203.4,105,203.4,112.3z M248.4,112.2c7.6,0,14.9,0,22,0c0-7.6,0-14.8,0-22c-7.5,0-14.7,0-22,0
		C248.4,97.6,248.4,104.8,248.4,112.2z M113.5,135.2c0,7.5,0,14.8,0,22c7.5,0,14.8,0,22.1,0c0-7.5,0-14.7,0-22
		C128.2,135.2,121,135.2,113.5,135.2z M180.5,157.3c0-7.5,0-14.7,0-22.1c-7.5,0-14.8,0-22,0c0,7.5,0,14.8,0,22.1
		C166,157.3,173.2,157.3,180.5,157.3z M225.5,157.3c0-7.6,0-14.8,0-22.1c-7.5,0-14.8,0-22,0c0,7.5,0,14.8,0,22.1
		C211,157.3,218.2,157.3,225.5,157.3z M248.5,135.2c0,7.6,0,14.8,0,22c7.5,0,14.8,0,22.1,0c0-7.5,0-14.7,0-22
		C263.2,135.2,256,135.2,248.5,135.2z M113.5,180.2c0,7.5,0,14.8,0,22c7.5,0,14.8,0,22.1,0c0-7.5,0-14.7,0-22
		C128.2,180.2,121,180.2,113.5,180.2z M158.4,202.3c7.5,0,14.7,0,22.1,0c0-7.5,0-14.8,0-22c-7.5,0-14.8,0-22.1,0
		C158.4,187.7,158.4,194.9,158.4,202.3z M203.5,180.2c0,7.6,0,14.8,0,22c7.5,0,14.8,0,22.1,0c0-7.5,0-14.7,0-22
		C218.2,180.2,211,180.2,203.5,180.2z M270.6,202.3c0-7.6,0-14.8,0-22.1c-7.5,0-14.7,0-22.1,0c0,7.5,0,14.8,0,22.1
		C256,202.3,263.1,202.3,270.6,202.3z M113.4,247.2c7.6,0,14.9,0,22,0c0-7.6,0-14.8,0-22c-7.5,0-14.7,0-22,0
		C113.4,232.6,113.4,239.8,113.4,247.2z M158.4,247.2c7.5,0,14.8,0,22,0c0-7.5,0-14.8,0-22.1c-7.5,0-14.7,0-22,0
		C158.4,232.6,158.4,239.8,158.4,247.2z M203.4,247.2c7.6,0,14.9,0,22,0c0-7.6,0-14.8,0-22c-7.5,0-14.7,0-22,0
		C203.4,232.6,203.4,239.8,203.4,247.2z M248.4,247.2c7.6,0,14.8,0,22,0c0-7.5,0-14.8,0-22.1c-7.5,0-14.7,0-22,0
		C248.4,232.6,248.4,239.8,248.4,247.2z"/>
	<path d="M0,90c22.6,0,45.2,0,68,0c0,98,0,195.7,0,294c-22.7,0-45.3,0-68,0C0,286,0,188,0,90z"/>
	<path d="M384,384c-22.7,0-45.4,0-68.3,0c0-98.1,0-195.9,0-294c22.9,0,45.6,0,68.3,0C384,188,384,286,384,384z"/>
	<path d="M214.2,383.8c-14.9,0-29.6,0-44.5,0c0-30.3,0-60.5,0-91c14.7,0,29.5,0,44.5,0C214.2,323,214.2,353.2,214.2,383.8z"/>
</g>
</svg>
