<svg xmlns="http://www.w3.org/2000/svg" width="26" height="26" viewBox="0 0 26 26">
    <g fill="none" fill-rule="evenodd">
        <g fill="#F79239">
            <g>
                <g>
                    <g>
                        <g>
                            <path d="M13 0C5.832 0 0 5.832 0 13s5.832 13 13 13 13-5.832 13-13S20.168 0 13 0zm5.687 14.083h-4.604v4.605c0 .598-.485 1.083-1.083 1.083s-1.083-.485-1.083-1.083v-4.605H7.312c-.598 0-1.083-.485-1.083-1.083s.485-1.083 1.083-1.083h4.605V7.313c0-.599.485-1.084 1.083-1.084s1.083.485 1.083 1.084v4.604h4.604c.598 0 1.084.485 1.084 1.083s-.486 1.083-1.084 1.083z" transform="translate(-690 -562) translate(550 55) translate(40 495) translate(100 12)"/>
                        </g>
                    </g>
                </g>
            </g>
        </g>
    </g>
</svg>
