<?xml version="1.0" encoding="utf-8"?>
<!-- Generator: Adobe Illustrator 25.0.0, SVG Export Plug-In . SVG Version: 6.00 Build 0)  -->
<svg version="1.1" id="Layer_1" xmlns="http://www.w3.org/2000/svg" xmlns:xlink="http://www.w3.org/1999/xlink" x="0px" y="0px"
	 viewBox="0 0 78 86" style="enable-background:new 0 0 78 86;" xml:space="preserve">
<style type="text/css">
	.st0{fill:#E43232;}
	.st1{fill:#FFFFFF;}
	.st2{fill:none;}
</style>
<path class="st0" d="M60.2,17.8C54.5,12.1,47,9,39,9s-15.5,3.1-21.2,8.8S9,31,9,39.1c0,14.2,9.9,26.4,23.6,29.4L39,77l6.4-8.5
	C59.1,65.5,69,53.2,69,39.1C69,31,65.9,23.5,60.2,17.8z M39,61c-12.2,0-22-9.9-22-22.1c0-12.2,9.9-22,22-22c12.2,0,22,9.9,22,22.1
	S51.2,61,39,61z"/>
<ellipse class="st1" cx="39" cy="39.4" rx="22" ry="22.5"/>
<g>
	<path class="st2" d="M38.1,40.4c0-0.3-0.3-0.6-0.6-0.6h-3.1v2.5c0,0.4-0.3,0.8-0.8,0.8c-0.4,0-0.8-0.3-0.8-0.8v-2.5h-3.1
		c-0.3,0-0.6,0.3-0.6,0.6v7.9c0,0.3,0.3,0.6,0.6,0.6h7.9c0.3,0,0.6-0.3,0.6-0.6h-0.1V40.4z"/>
	<path class="st2" d="M43.6,37.5v-7.9c0-0.3-0.3-0.6-0.6-0.6h-3.3v2.5c0,0.4-0.4,0.8-0.8,0.8c-0.4,0-0.8-0.3-0.8-0.8V29H35
		c-0.3,0-0.6,0.3-0.6,0.6v7.9c0,0.3,0.3,0.6,0.6,0.6h8C43.3,38.1,43.6,37.8,43.6,37.5z"/>
	<path class="st2" d="M48.9,40.4c0-0.3-0.3-0.6-0.6-0.6h-3.1v2.5c0,0.4-0.3,0.8-0.8,0.8c-0.4,0-0.8-0.3-0.8-0.8v-2.5h-3.1
		c-0.3,0-0.6,0.3-0.6,0.6v7.9c0,0.3,0.3,0.6,0.6,0.6h7.9c0.3,0,0.6-0.3,0.6-0.6h-0.1V40.4z"/>
	<path class="st0" d="M39,20.8c-10,0-18.1,8.1-18.1,18.1S29,57,39,57s18.1-8.1,18.1-18.1S49,20.8,39,20.8z M37.6,48.9h-7.9
		c-0.3,0-0.6-0.3-0.6-0.6v-7.9c0-0.3,0.3-0.6,0.6-0.6h3.1v2.5c0,0.5,0.4,0.8,0.8,0.8c0.5,0,0.8-0.4,0.8-0.8v-2.5h3.1
		c0.3,0,0.6,0.3,0.6,0.6v7.9h0.1C38.2,48.6,37.9,48.9,37.6,48.9z M35,38.1c-0.3,0-0.6-0.3-0.6-0.6v-7.9c0-0.3,0.3-0.6,0.6-0.6h3.1
		v2.5c0,0.5,0.4,0.8,0.8,0.8c0.4,0,0.8-0.4,0.8-0.8V29H43c0.3,0,0.6,0.3,0.6,0.6v7.9c0,0.3-0.3,0.6-0.6,0.6H35z M48.4,48.9h-7.9
		c-0.3,0-0.6-0.3-0.6-0.6v-7.9c0-0.3,0.3-0.6,0.6-0.6h3.1v2.5c0,0.5,0.4,0.8,0.8,0.8c0.5,0,0.8-0.4,0.8-0.8v-2.5h3.1
		c0.3,0,0.6,0.3,0.6,0.6v7.9H49C49,48.6,48.7,48.9,48.4,48.9z"/>
</g>
</svg>
