<?xml version="1.0" encoding="utf-8"?>
<!-- Generator: Adobe Illustrator 22.0.0, SVG Export Plug-In . SVG Version: 6.00 Build 0)  -->
<svg version="1.1" id="Layer_1" xmlns="http://www.w3.org/2000/svg" xmlns:xlink="http://www.w3.org/1999/xlink" x="0px" y="0px"
	 viewBox="0 0 395 395" style="enable-background:new 0 0 395 395;" xml:space="preserve" fill="#ffffff" width="20" height="20">
<g>
	<path d="M219.8,273.9c-4.1,5.3-10.5,8.3-17.2,8.2H190c-6.6,0.2-12.8-2.7-16.9-7.9c-2.8,6.2-6.1,12.2-9.7,17.9
		c10.8,3.3,21.9,5.2,33.1,5.8c11.4-0.6,22.5-2.5,33.2-5.8C226,286.3,222.7,280.2,219.8,273.9z"/>
	<path d="M196.6,348.7c14.6-11.2,26.3-25.7,34.1-42.3c-11.1,3.2-22.6,5.1-34.1,5.6c-11.6-0.5-23-2.4-34.1-5.6
		C170.4,323.1,182.1,337.5,196.6,348.7z"/>
	<path d="M387.9,63.5h-6.2c-4.6,0-8.7-3.1-10.1-7.5c-0.9-3-2.1-5.8-3.5-8.6c-2.2-4.1-1.5-9.2,1.8-12.5l4.4-4.4c2-2,2.6-5,1.5-7.7
		c-1.1-2.6-3.6-4.4-6.5-4.4c-1.9,0-3.7,0.7-5,2.1l-4.4,4.4c-3.3,3.3-8.4,4.1-12.5,1.8c-2.7-1.5-5.6-2.6-8.6-3.5
		c-4.5-1.3-7.5-5.4-7.5-10.1v-6c0-3.9-3.2-7.1-7.1-7.1c-3.9,0-7.1,3.2-7.1,7.1v6.2c0,4.6-3.1,8.7-7.5,10.1c-3,0.9-5.8,2.1-8.6,3.5
		c-4.1,2.2-9.2,1.5-12.5-1.8l-4.4-4.4c-1.3-1.3-3.1-2.1-5-2.1c-2.8,0-5.4,1.7-6.5,4.4c-1.1,2.6-0.5,5.6,1.5,7.7l4.4,4.4
		c3.3,3.3,4,8.4,1.8,12.4c-1.5,2.7-2.6,5.6-3.5,8.6c-1.3,4.5-5.5,7.5-10.1,7.5h-6.2c-3.9,0-7.1,3.2-7.1,7.1c0,3.9,3.2,7.1,7.1,7.1
		h6.2c4.6,0,8.7,3,10.1,7.5c0.9,3,2.1,5.8,3.5,8.6c2.2,4.1,1.5,9.2-1.8,12.5l-0.4,0.4c-0.5,0.3-0.9,0.6-1.4,1.1l-54.2,54.2
		c-9.9-6.4-23.1-7.1-23.3-7.1h-6c-0.7,0.1-12.8,0.7-22.3,6.6l-63.1-63.1c7.5-14.2,11.7-30.3,11.7-47V27.2h-3.2
		c-16.9,0-32.6-7.5-43.1-20.7C69.9,2.4,65,0,59.7,0S49.6,2.4,46.3,6.4C35.8,19.6,20.1,27.2,3.2,27.2H0v24.3
		c0,36.7,19.9,70.5,52,88.2c4.4,2,10.7,2.2,15.8-0.2c12.9-7.2,23.9-17,32.3-28.7l61.2,61.2c-1.1,2.4-1.7,5-1.9,8.1
		c-1,10.8-0.4,21.7,1.8,32.4c0.9,3.6,1.4,7.3,1.4,11.1c0,1.9-0.1,3.8-0.2,5.6c-1.7,7.3,1.1,14.8,7.1,19.2c4.3,3.8,8.2,8,11.5,12.8
		c4,5.5,5.1,6.7,9.2,6.7h12.5c4,0,5.1-1.3,9.2-6.7c3.3-4.7,7.1-9,11.4-12.8c6-4.4,8.8-12,7.1-19.2c-0.1-1.8-0.2-3.7-0.2-5.6
		c0.1-3.7,0.5-7.5,1.4-11.1c2.2-10.6,2.8-21.6,1.8-32.4c-0.2-2.7-0.7-5.1-1.6-7.3l50.9-50.9c0.5-0.3,1-0.7,1.5-1.2l4.4-4.4
		c2-2,4.6-3.1,7.4-3.1c1.8,0,3.5,0.4,5,1.3c2.7,1.5,5.6,2.6,8.6,3.5c4.5,1.3,7.5,5.4,7.5,10.1v6.2c0,3.9,3.2,7.1,7.1,7.1
		c3.9,0,7.1-3.2,7.1-7.1v-6.2c0-4.6,3.1-8.7,7.5-10.1c3-0.9,5.8-2.1,8.6-3.5c4.1-2.2,9.2-1.5,12.5,1.8l4.4,4.4
		c1.3,1.3,3.1,2.1,5,2.1c2.8,0,5.4-1.8,6.5-4.4c1.1-2.6,0.5-5.6-1.5-7.7l-4.4-4.4c-3.3-3.3-4.1-8.4-1.8-12.5
		c1.5-2.7,2.6-5.6,3.5-8.6c1.3-4.5,5.5-7.5,10.1-7.5h6.2c3.9,0,7.1-3.2,7.1-7.1C395,66.7,391.8,63.5,387.9,63.5z M52.9,101.4
		L27.4,75.8l7.7-7.7L53,86l39.2-39.3l7.7,7.7L52.9,101.4z M324.4,105.9c-19.5,0-35.3-15.8-35.3-35.3c0-19.5,15.8-35.3,35.3-35.3
		s35.3,15.8,35.3,35.3S343.9,105.9,324.4,105.9z"/>
	<circle cx="323.7" cy="70.3" r="21.2"/>
	<path d="M246.5,303.8c-2.9,11.2-12.7,33.4-45.5,59.6c-0.2,0.1-0.4,0.2-0.6,0.3c-2.3,1.5-5.4,1.5-7.7,0c-0.2-0.1-0.4-0.2-0.6-0.3
		c-32.8-26.2-42.6-48.4-45.5-59.6c-13.9,1.7-27,7.6-37.4,17c-8.4,10.5-12.5,23.7-11.5,37.1c0,30.2,73.2,37.1,98.8,37.1
		c25.6,0,98.8-6.8,98.8-37.1c1-13.4-3.1-26.6-11.5-37.1C273.5,311.5,260.5,305.5,246.5,303.8z"/>
</g>
</svg>
