<svg xmlns="http://www.w3.org/2000/svg" width="22" height="22" viewBox="0 0 22 22">
    <g fill="none" fill-rule="evenodd">
        <g fill="#212121" stroke="#212121" stroke-width=".4">
            <path d="M386.294 46.579h-.903l-.32-.31c1.12-1.303 1.795-2.995 1.795-4.836 0-4.105-3.328-7.433-7.433-7.433S372 37.328 372 41.433s3.328 7.433 7.433 7.433c1.84 0 3.533-.675 4.837-1.796l.309.32v.904L390.296 54 392 52.296l-5.706-5.717zm-6.861 0c-2.848 0-5.146-2.299-5.146-5.146 0-2.848 2.298-5.146 5.146-5.146 2.847 0 5.146 2.298 5.146 5.146 0 2.847-2.299 5.146-5.146 5.146z" transform="translate(-371 -33)"/>
        </g>
    </g>
</svg>
