<svg xmlns="http://www.w3.org/2000/svg" width="50" height="50" viewBox="0 0 50 50">
    <g fill="none" fill-rule="evenodd">
        <g>
            <g transform="translate(-340 -1005) translate(340 1005)">
                <rect width="50" height="50" fill="#F79239" rx="6"/>
                <path fill="#FFF" fill-rule="nonzero" d="M34.371 16.323c-.493-.379-1.165-.429-1.709-.127l-15.84 8.64c-.499.272-.813.792-.822 1.36-.009.569.288 1.098.779 1.387l3.74 2.2 8.938-7.45-7.124 8.708V35l3.037-2.363 3.647 2.146c.435.255.965.288 1.428.089.462-.2.802-.609.914-1.1l3.6-15.839c.142-.605-.089-1.237-.588-1.609z"/>
            </g>
        </g>
    </g>
</svg>
