<?xml version="1.0" encoding="utf-8"?>
<!-- Generator: Adobe Illustrator 22.0.0, SVG Export Plug-In . SVG Version: 6.00 Build 0)  -->
<svg version="1.1" id="Layer_1" xmlns="http://www.w3.org/2000/svg" xmlns:xlink="http://www.w3.org/1999/xlink" x="0px" y="0px"
	 viewBox="0 0 426 426" style="enable-background:new 0 0 426 426;" xml:space="preserve" width="20" height="20">
<g>
	<path d="M212.7,187.6c22.7,0,41.1-18.4,41.1-41.1s-18.4-41.1-41.1-41.1s-41.1,18.4-41.1,41.1C171.7,169.2,190.1,187.6,212.7,187.6z
		"/>
	<path d="M360.7,70c-5.8-1.6-11.8-1.8-17.7-1.1v-4.4c0-5,4-9,9-9s9,4,9,9C361,64.5,361,67.7,360.7,70c4.1,1.3,9.2,3.7,12.6,6.1
		c0,0,0.4,0.3,0.8,0.6l0.9,0.7V64.5c0-12.7-10.3-23-23-23s-23,10.3-23,23v9.4c-12.2,7-20,19.8-20.6,33.9
		C321,106,347.6,98.9,360.7,70z"/>
	<path d="M356.8,99.6c-6.9,6.6-14.9,11.9-23.7,15.7c-7.3,3.1-15,5.3-22.9,6.4c5.3,17.2,21.2,29,39.3,29c18.4,0.2,34.7-12,39.6-29.8
		C373.9,116.9,363.1,107.1,356.8,99.6z"/>
	<path d="M373.4,76.2c-2.1,4.3-4.6,8.7-7.3,12.6c4.5,5.7,12.7,14.1,24.4,17.9c-0.8-11.9-6.8-22.8-16.3-29.9L373.4,76.2z"/>
	<path d="M136.7,264.9v115.6c0,2.2,1.8,4,4,4H208V283.1l-24.5-79.8C155.9,211,136.7,236.2,136.7,264.9z"/>
	<path d="M148.8,206.8c-6.8-19.5-22.6-34.6-42.3-40.6L82,255v42.1h40.7v-32.2C122.7,242.7,132.2,221.5,148.8,206.8z M119,227.5h-13
		c-3.9,0-7-3.1-7-7c0-3.9,3.1-7,7-7h13c3.9,0,7,3.1,7,7C126,224.4,122.9,227.5,119,227.5z"/>
	<path d="M379.8,166l-11.6,49.8c-1.6,6.9-6.5,12.6-13.2,15.1v66.2h67c2.2,0,4-1.8,4-4v-65.6C426,198.9,407.1,173.9,379.8,166z
		 M398,230.5h-17c-3.9,0-7-3.1-7-7c0-3.9,3.1-7,7-7h17c3.9,0,7,3.1,7,7C405,227.4,401.9,230.5,398,230.5z"/>
	<path d="M246.1,204.6L222,283.1v101.4h62.8c2.2,0,4-1.8,4-4V264.9C288.8,237.8,271.6,213.6,246.1,204.6z M265,270.5h-17
		c-3.9,0-7-3.1-7-7c0-3.9,3.1-7,7-7h17c3.9,0,7,3.1,7,7C272,267.4,268.9,270.5,265,270.5z"/>
	<path d="M0,227.4v65.7c0,2.2,1.8,4,4,4h64V255l-24.3-88.2C17.6,175.5,0,199.9,0,227.4z"/>
	<path d="M88.2,163.5H63.9c-2.2,0-4.3,0.1-6.4,0.3l17.6,63.8l17.6-64C91.1,163.6,89.7,163.5,88.2,163.5z"/>
	<path d="M224.9,201h-24.3c-1.1,0-2.1,0-3.1,0.1l17.5,57.1l17.4-56.8C229.9,201.1,227.4,201,224.9,201z"/>
	<path d="M327.8,215.7l-11.3-48.5c-18.5,6.6-33.1,21.2-39.6,39.7c16.5,14.7,25.9,35.8,25.9,57.9V297H341v-66.2
		C334.4,228.3,329.4,222.6,327.8,215.7z"/>
	<path d="M362.1,163.5h-24.3c-2.6,0-5.1,0.2-7.7,0.5l11.3,48.6c0.7,3.1,3.3,5.4,6.5,5.5h0.5c3-0.3,5.4-2.5,6-5.5l11.4-48.9
		C364.7,163.6,363.4,163.5,362.1,163.5z"/>
	<path d="M76,150.7c22.6,0,40.6-18.1,41.1-41.2c0-22.7-18.5-41.1-41.2-41c-22.7,0-41.1,18.5-41,41.2C35,132.3,53.4,150.7,76,150.7z"
		/>
</g>
</svg>
