<svg version="1.1" id="Capa_1" xmlns="http://www.w3.org/2000/svg" xmlns:xlink="http://www.w3.org/1999/xlink" x="0px" y="0px"
	 viewBox="0 0 512 270" width="20" height="20" fill="#ff4848" style="enable-background:new 0 0 512 270;" xml:space="preserve">
<g>
	<g>
		<path d="M0,188.3h49c-11.5,8.2-19,21.6-19,36.7c0,24.8,20.2,45,45,45c11.5,0,22-4.4,30-11.5c8,7.1,18.5,11.5,30,11.5
			s22-4.4,30-11.5c8,7.1,18.5,11.5,30,11.5c19.6,0,36.2-12.5,42.4-30H392v-51.7h30V270h60v-30h-30v-51.7h60V0L0,0L0,188.3z
			 M240,188.3h122V210H240V188.3z M180,225c0-8.3,6.7-15,15-15s15,6.7,15,15s-6.7,15-15,15S180,233.3,180,225z M120,225
			c0-8.3,6.7-15,15-15s15,6.7,15,15s-6.7,15-15,15S120,233.3,120,225z M60,225c0-8.3,6.7-15,15-15s15,6.7,15,15s-6.7,15-15,15
			S60,233.3,60,225z"/>
	</g>
</g>
</svg>
