<svg xmlns="http://www.w3.org/2000/svg" width="59" height="55" viewBox="0 0 59 55">
    <g fill="none" fill-rule="evenodd">
        <g fill="#00AEEF">
            <g>
                <g>
                    <path d="M57.001 42.114L36.425 4.234C34.872 1.62 32.13.06 29.09.06c-3.041 0-5.784 1.561-7.337 4.176l-.033.06-20.507 37.76c-1.587 2.669-1.617 5.874-.082 8.574 1.538 2.7 4.309 4.312 7.416 4.312h40.971c3.108 0 5.993-1.611 7.53-4.312 1.535-2.7 1.505-5.906-.046-8.515zm-31.325-24.71c0-1.886 1.528-3.413 3.413-3.413 1.885 0 3.412 1.528 3.412 3.412v13.65c0 1.885-1.528 3.413-3.412 3.413-1.885 0-3.413-1.528-3.413-3.413v-13.65zm3.413 30.712c-2.823 0-5.12-2.296-5.12-5.119 0-2.822 2.297-5.119 5.12-5.119 2.822 0 5.118 2.297 5.118 5.12 0 2.822-2.296 5.118-5.118 5.118z" transform="translate(-931 -424) translate(745 384) translate(186 40)"/>
                </g>
            </g>
        </g>
    </g>
</svg>
